<svg width="50" height="50" viewBox="0 0 50 50" fill="none" xmlns="http://www.w3.org/2000/svg">
<path d="M26.75 33.25L33.25 26.75C33.75 26.25 34 25.6667 34 25C34 24.3333 33.75 23.75 33.25 23.25L26.6875 16.6875C26.2292 16.2292 25.6567 16.01 24.97 16.03C24.2817 16.0517 23.7083 16.2917 23.25 16.75C22.7917 17.2083 22.5625 17.7917 22.5625 18.5C22.5625 19.2083 22.7917 19.7917 23.25 20.25L25.5 22.5H17.4375C16.7292 22.5 16.1458 22.7392 15.6875 23.2175C15.2292 23.6975 15 24.2917 15 25C15 25.7083 15.24 26.3017 15.72 26.78C16.1983 27.26 16.7917 27.5 17.5 27.5H25.5L23.1875 29.8125C22.7292 30.2708 22.51 30.8442 22.53 31.5325C22.5517 32.2192 22.7917 32.7917 23.25 33.25C23.7083 33.7083 24.2917 33.9375 25 33.9375C25.7083 33.9375 26.2917 33.7083 26.75 33.25ZM25 50C21.5417 50 18.2917 49.3433 15.25 48.03C12.2083 46.7183 9.5625 44.9375 7.3125 42.6875C5.0625 40.4375 3.28167 37.7917 1.97 34.75C0.656667 31.7083 0 28.4583 0 25C0 21.5417 0.656667 18.2917 1.97 15.25C3.28167 12.2083 5.0625 9.5625 7.3125 7.3125C9.5625 5.0625 12.2083 3.28083 15.25 1.9675C18.2917 0.655833 21.5417 0 25 0C28.4583 0 31.7083 0.655833 34.75 1.9675C37.7917 3.28083 40.4375 5.0625 42.6875 7.3125C44.9375 9.5625 46.7183 12.2083 48.03 15.25C49.3433 18.2917 50 21.5417 50 25C50 28.4583 49.3433 31.7083 48.03 34.75C46.7183 37.7917 44.9375 40.4375 42.6875 42.6875C40.4375 44.9375 37.7917 46.7183 34.75 48.03C31.7083 49.3433 28.4583 50 25 50ZM25 45C30.5417 45 35.2608 43.0525 39.1575 39.1575C43.0525 35.2608 45 30.5417 45 25C45 19.4583 43.0525 14.7392 39.1575 10.8425C35.2608 6.9475 30.5417 5 25 5C19.4583 5 14.74 6.9475 10.845 10.8425C6.94833 14.7392 5 19.4583 5 25C5 30.5417 6.94833 35.2608 10.845 39.1575C14.74 43.0525 19.4583 45 25 45Z" fill="#020040"/>
</svg>
