<svg width="50" height="50" viewBox="0 0 50 50" fill="none" xmlns="http://www.w3.org/2000/svg">
<path d="M25 0C11.2 0 0 11.2 0 25C0 38.8 11.2 50 25 50C38.8 50 50 38.8 50 25C50 11.2 38.8 0 25 0ZM25 45C13.975 45 5 36.025 5 25C5 13.975 13.975 5 25 5C36.025 5 45 13.975 45 25C45 36.025 36.025 45 25 45ZM34.7 15.725L20 30.425L15.3 25.725C14.8326 25.2576 14.1986 24.9949 13.5375 24.9949C12.8764 24.9949 12.2424 25.2576 11.775 25.725C11.3076 26.1924 11.0449 26.8264 11.0449 27.4875C11.0449 28.1486 11.3076 28.7826 11.775 29.25L18.25 35.725C19.225 36.7 20.8 36.7 21.775 35.725L38.25 19.25C38.4818 19.0187 38.6656 18.744 38.7911 18.4416C38.9165 18.1391 38.9811 17.8149 38.9811 17.4875C38.9811 17.1601 38.9165 16.8359 38.7911 16.5334C38.6656 16.231 38.4818 15.9563 38.25 15.725C37.275 14.75 35.675 14.75 34.7 15.725Z" fill="#020040"/>
</svg>
