<svg width="2513" height="288" viewBox="0 0 2513 288" fill="none" xmlns="http://www.w3.org/2000/svg">
<g filter="url(#filter0_d_982_1920)">
<path d="M124.416 241.413L64.6061 241.413L57.7021 241.413L52.1389 240.675L47.0392 239.747L42.1214 238.167L35.681 235.111L30.0678 230.517L27.568 227.23L25.202 223.333L24.3228 219.581L23.6274 215.872L23.1158 211.931L23.1158 207.571L25.8974 199.69L32.156 188.332L40.5488 177.857L47.9185 168.397L54.6407 158.429L60.8993 148.694L66.2307 139.19L79.6752 114.155L85.9338 96.7702L91.0334 79.3852L97.7556 54.3507L99.6101 39.5153" stroke="#68EAFF" stroke-width="30.1341" stroke-linejoin="round"/>
</g>
<g filter="url(#filter1_d_982_1920)">
<path d="M124.416 39.3885L64.6061 39.3885L57.7021 39.3885L52.1389 40.1272L47.0392 41.0544L42.1214 42.6353L35.681 45.6904L30.0678 50.2847L27.568 53.5716L25.202 57.4683L24.3228 61.221L23.6274 64.9298L23.1158 68.8705L23.1158 73.2308L25.8974 81.112L32.156 92.4702L40.5488 102.945L47.9185 112.405L54.6407 122.373L60.8993 132.108L66.2307 141.612L79.6752 166.646L85.9338 184.032L91.0334 201.417L97.7556 226.451L99.6101 241.286" stroke="white" stroke-width="30.1341" stroke-linejoin="round"/>
</g>
<g filter="url(#filter2_d_982_1920)">
<path d="M122.846 241.413L182.656 241.413L189.56 241.413L195.123 240.675L200.222 239.747L205.14 238.167L211.581 235.111L217.194 230.517L219.694 227.23L222.06 223.333L222.939 219.581L223.634 215.872L224.146 211.931L224.146 207.571L221.364 199.69L215.106 188.332L206.713 177.857L199.343 168.397L192.621 158.429L186.362 148.694L181.031 139.19L167.587 114.155L161.328 96.7702L156.228 79.3852L149.506 54.3507L147.652 39.5153" stroke="#68EAFF" stroke-width="30.1341" stroke-linejoin="round"/>
</g>
<g filter="url(#filter3_d_982_1920)">
<path d="M122.846 39.3885L182.656 39.3885L189.56 39.3885L195.123 40.1272L200.222 41.0544L205.14 42.6353L211.581 45.6904L217.194 50.2847L219.694 53.5716L222.06 57.4683L222.939 61.221L223.634 64.9298L224.146 68.8705L224.146 73.2308L221.364 81.112L215.106 92.4702L206.713 102.945L199.343 112.405L192.621 122.373L186.362 132.108L181.031 141.612L167.587 166.646L161.328 184.032L156.228 201.417L149.506 226.451L147.652 241.286" stroke="white" stroke-width="30.1341" stroke-linejoin="round"/>
</g>
<line x1="75.3242" y1="241.37" x2="170.363" y2="241.37" stroke="#68EAFF" stroke-width="30.1341" stroke-linejoin="round"/>
<line x1="116.578" y1="39.4714" x2="134.659" y2="39.4714" stroke="white" stroke-width="29.6705"/>
<path d="M509.916 224H406.334C403.684 224 400.812 223.706 397.72 223.117C394.702 222.454 391.684 221.46 388.665 220.135C385.72 218.81 382.886 217.117 380.162 215.055C377.438 212.92 375.009 210.38 372.874 207.436C370.812 204.417 369.156 200.957 367.905 197.055C366.653 193.08 366.027 188.626 366.027 183.693V105.951C366.027 103.301 366.322 100.467 366.911 97.4482C367.573 94.3561 368.567 91.3378 369.892 88.393C371.217 85.3746 372.947 82.5034 375.082 79.7795C377.217 77.0556 379.757 74.6629 382.702 72.6016C385.72 70.4666 389.181 68.7734 393.082 67.5219C396.984 66.2703 401.401 65.6446 406.334 65.6446H509.916V94.3561H406.334C402.579 94.3561 399.708 95.35 397.72 97.3377C395.733 99.3255 394.739 102.27 394.739 106.172V183.693C394.739 187.374 395.733 190.245 397.72 192.307C399.782 194.295 402.653 195.288 406.334 195.288H509.916V224ZM700.848 159.951C700.848 169.595 699.192 178.466 695.879 186.565C692.566 194.663 687.965 201.656 682.076 207.546C676.186 213.436 669.192 218.037 661.094 221.35C653.069 224.589 644.309 226.209 634.812 226.209H595.941C586.444 226.209 577.646 224.589 569.548 221.35C561.45 218.037 554.456 213.436 548.567 207.546C542.677 201.656 538.039 194.663 534.653 186.565C531.34 178.466 529.683 169.595 529.683 159.951V129.693C529.683 120.123 531.34 111.289 534.653 103.19C538.039 95.0187 542.677 88.0249 548.567 82.2089C554.456 76.3194 561.45 71.7182 569.548 68.4053C577.646 65.0924 586.444 63.436 595.941 63.436H634.812C644.309 63.436 653.069 65.0924 661.094 68.4053C669.192 71.7182 676.186 76.3194 682.076 82.2089C687.965 88.0249 692.566 95.0187 695.879 103.19C699.192 111.289 700.848 120.123 700.848 129.693V159.951ZM672.137 129.693C672.137 124.025 671.217 118.908 669.376 114.344C667.609 109.706 665.069 105.767 661.757 102.528C658.517 99.215 654.579 96.6752 649.941 94.9083C645.376 93.0678 640.333 92.1476 634.812 92.1476H595.941C590.346 92.1476 585.229 93.0678 580.591 94.9083C576.027 96.6752 572.088 99.215 568.775 102.528C565.462 105.767 562.886 109.706 561.045 114.344C559.278 118.908 558.395 124.025 558.395 129.693V159.951C558.395 165.62 559.278 170.773 561.045 175.411C562.886 179.976 565.462 183.914 568.775 187.227C572.088 190.466 576.027 193.006 580.591 194.847C585.229 196.614 590.346 197.497 595.941 197.497H634.591C640.186 197.497 645.266 196.614 649.83 194.847C654.468 193.006 658.444 190.466 661.757 187.227C665.069 183.914 667.609 179.976 669.376 175.411C671.217 170.773 672.137 165.62 672.137 159.951V129.693ZM884.382 209.534C884.382 211.595 884.014 213.509 883.277 215.276C882.541 217.043 881.511 218.589 880.185 219.914C878.86 221.166 877.314 222.16 875.547 222.896C873.781 223.632 871.903 224 869.916 224H805.204C799.094 224 792.91 223.337 786.652 222.012C780.394 220.687 774.321 218.663 768.431 215.939C762.615 213.141 757.131 209.607 751.977 205.337C746.824 201.068 742.296 196.025 738.394 190.209C734.566 184.319 731.548 177.62 729.339 170.111C727.131 162.528 726.026 154.098 726.026 144.822V65.6446H754.738V144.822C754.738 152.92 755.842 159.767 758.051 165.362C760.333 170.957 763.204 175.632 766.664 179.387C770.124 183.141 773.916 186.086 778.038 188.221C782.161 190.356 786.063 191.939 789.744 192.969C793.499 194 796.775 194.663 799.572 194.957C802.443 195.178 804.321 195.288 805.204 195.288H855.67V65.6446H884.382V209.534ZM1076.09 211.742C1076.09 213.804 1075.68 215.718 1074.87 217.485C1074.14 219.252 1073.11 220.798 1071.78 222.123C1070.53 223.374 1069.02 224.368 1067.25 225.104C1065.49 225.84 1063.61 226.209 1061.62 226.209C1059.85 226.209 1058.05 225.877 1056.21 225.215C1054.44 224.552 1052.86 223.485 1051.46 222.012L946.553 112.467V224H917.842V77.9022C917.842 74.9574 918.652 72.3071 920.271 69.9513C921.964 67.5219 924.099 65.7182 926.676 64.5403C929.4 63.436 932.198 63.1783 935.069 63.7673C937.94 64.2826 940.406 65.6078 942.468 67.7427L1047.38 177.178V65.6446H1076.09V211.742ZM1252.66 94.3561H1189.39V224H1160.68V94.3561H1097.29V65.6446H1252.66V94.3561ZM1404.06 159.289H1313.4V130.356H1404.06V159.289ZM1416.98 224H1313.4C1309.42 224 1305.08 223.301 1300.37 221.902C1295.66 220.503 1291.28 218.221 1287.23 215.055C1283.25 211.816 1279.9 207.656 1277.18 202.577C1274.53 197.423 1273.2 191.129 1273.2 183.693V80.1108C1273.2 78.1231 1273.57 76.2458 1274.31 74.4789C1275.04 72.712 1276.04 71.166 1277.29 69.8409C1278.61 68.5157 1280.16 67.485 1281.93 66.7489C1283.69 66.0127 1285.61 65.6446 1287.67 65.6446H1416.98V94.3561H1301.91V183.693C1301.91 187.448 1302.91 190.319 1304.9 192.307C1306.88 194.295 1309.79 195.288 1313.62 195.288H1416.98V224ZM1603.05 118.871C1603.05 125.424 1602.25 131.276 1600.63 136.43C1599.01 141.583 1596.8 146.147 1594 150.123C1591.28 154.025 1588.11 157.374 1584.5 160.172C1580.9 162.969 1577.1 165.288 1573.13 167.129C1569.23 168.896 1565.25 170.184 1561.2 170.994C1557.23 171.804 1553.47 172.209 1549.94 172.209L1609.9 224H1565.51L1505.66 172.209H1485.01V143.497H1549.94C1553.55 143.203 1556.82 142.466 1559.77 141.289C1562.78 140.037 1565.36 138.381 1567.5 136.319C1569.71 134.258 1571.4 131.792 1572.58 128.92C1573.75 125.976 1574.34 122.626 1574.34 118.871V100.761C1574.34 99.1414 1574.12 97.9267 1573.68 97.1169C1573.31 96.2334 1572.8 95.6077 1572.13 95.2396C1571.55 94.7979 1570.88 94.5402 1570.15 94.4666C1569.48 94.393 1568.86 94.3561 1568.27 94.3561H1473.52V224H1444.81V80.1108C1444.81 78.1231 1445.18 76.2458 1445.91 74.4789C1446.65 72.712 1447.64 71.166 1448.9 69.8409C1450.22 68.5157 1451.77 67.485 1453.53 66.7489C1455.3 66.0127 1457.21 65.6446 1459.28 65.6446H1568.27C1574.67 65.6446 1580.09 66.8225 1584.5 69.1783C1588.92 71.4605 1592.49 74.3685 1595.21 77.9022C1598.01 81.3623 1600 85.1169 1601.18 89.166C1602.43 93.215 1603.05 97.0064 1603.05 100.54V118.871Z" fill="white"/>
<path d="M1789.68 131.902C1789.68 138.454 1788.87 144.307 1787.25 149.46C1785.63 154.614 1783.42 159.178 1780.62 163.154C1777.9 167.055 1774.74 170.405 1771.13 173.203C1767.52 176 1763.73 178.282 1759.75 180.049C1755.85 181.816 1751.88 183.104 1747.83 183.914C1743.85 184.724 1740.1 185.129 1736.56 185.129H1671.63V156.417H1736.56C1740.24 156.123 1743.56 155.387 1746.5 154.209C1749.52 152.957 1752.1 151.301 1754.23 149.239C1756.37 147.178 1758.02 144.712 1759.2 141.841C1760.38 138.896 1760.97 135.583 1760.97 131.902V118.871C1760.6 115.264 1759.83 111.951 1758.65 108.933C1757.47 105.914 1755.85 103.338 1753.79 101.203C1751.8 99.0678 1749.37 97.4114 1746.5 96.2334C1743.63 94.9819 1740.32 94.3561 1736.56 94.3561H1671.85C1668.02 94.3561 1665.12 95.35 1663.13 97.3377C1661.14 99.3255 1660.15 102.197 1660.15 105.951V224H1631.44V105.951C1631.44 98.5893 1632.76 92.3316 1635.41 87.1783C1638.13 82.0249 1641.48 77.8654 1645.46 74.6998C1649.51 71.5341 1653.89 69.2519 1658.6 67.8531C1663.31 66.3808 1667.66 65.6446 1671.63 65.6446H1736.56C1743.04 65.6446 1748.86 66.4912 1754.01 68.1844C1759.16 69.8041 1763.69 72.0126 1767.59 74.8102C1771.57 77.5341 1774.92 80.6997 1777.64 84.3071C1780.44 87.9144 1782.72 91.7058 1784.49 95.6813C1786.33 99.5831 1787.66 103.559 1788.47 107.608C1789.28 111.583 1789.68 115.338 1789.68 118.871V131.902ZM1969.68 224H1940.97V185.129H1840.04V224H1811.32V144.822C1811.32 133.264 1813.31 122.626 1817.29 112.908C1821.26 103.19 1826.78 94.8347 1833.85 87.8408C1840.92 80.847 1849.28 75.3991 1858.92 71.4973C1868.56 67.5955 1879.09 65.6446 1890.5 65.6446H1955.21C1957.2 65.6446 1959.08 66.0127 1960.85 66.7489C1962.61 67.485 1964.16 68.5157 1965.48 69.8409C1966.81 71.166 1967.84 72.712 1968.58 74.4789C1969.31 76.2458 1969.68 78.1231 1969.68 80.1108V224ZM1840.04 156.417H1940.97V94.3561H1890.5C1889.62 94.3561 1887.74 94.5034 1884.87 94.7979C1882.07 95.0187 1878.8 95.6445 1875.04 96.6752C1871.36 97.7058 1867.46 99.2887 1863.34 101.424C1859.21 103.559 1855.42 106.503 1851.96 110.258C1848.5 114.013 1845.63 118.724 1843.35 124.393C1841.14 129.988 1840.04 136.798 1840.04 144.822V156.417ZM2161.38 118.871C2161.38 125.424 2160.57 131.276 2158.96 136.43C2157.34 141.583 2155.13 146.147 2152.33 150.123C2149.61 154.025 2146.44 157.374 2142.83 160.172C2139.23 162.969 2135.43 165.288 2131.46 167.129C2127.56 168.896 2123.58 170.184 2119.53 170.994C2115.56 171.804 2111.8 172.209 2108.27 172.209L2168.23 224H2123.84L2063.99 172.209H2043.34V143.497H2108.27C2111.88 143.203 2115.15 142.466 2118.1 141.289C2121.11 140.037 2123.69 138.381 2125.83 136.319C2128.04 134.258 2129.73 131.792 2130.91 128.92C2132.08 125.976 2132.67 122.626 2132.67 118.871V100.761C2132.67 99.1414 2132.45 97.9267 2132.01 97.1169C2131.64 96.2334 2131.13 95.6077 2130.46 95.2396C2129.88 94.7979 2129.21 94.5402 2128.48 94.4666C2127.81 94.393 2127.19 94.3561 2126.6 94.3561H2031.85V224H2003.14V80.1108C2003.14 78.1231 2003.51 76.2458 2004.24 74.4789C2004.98 72.712 2005.97 71.166 2007.23 69.8409C2008.55 68.5157 2010.1 67.485 2011.86 66.7489C2013.63 66.0127 2015.54 65.6446 2017.61 65.6446H2126.6C2133 65.6446 2138.42 66.8225 2142.83 69.1783C2147.25 71.4605 2150.82 74.3685 2153.54 77.9022C2156.34 81.3623 2158.33 85.1169 2159.51 89.166C2160.76 93.215 2161.38 97.0064 2161.38 100.54V118.871ZM2332 94.3561H2268.72V224H2240.01V94.3561H2176.62V65.6446H2332V94.3561ZM2505.37 177.399C2505.37 183.068 2504.64 188.184 2503.16 192.749C2501.76 197.239 2499.89 201.215 2497.53 204.675C2495.18 208.135 2492.41 211.08 2489.25 213.509C2486.08 215.939 2482.81 217.926 2479.42 219.472C2476.03 221.018 2472.57 222.16 2469.04 222.896C2465.58 223.632 2462.3 224 2459.21 224H2348.45V195.288H2459.21C2464.73 195.288 2469 193.669 2472.02 190.43C2475.11 187.19 2476.66 182.847 2476.66 177.399C2476.66 174.749 2476.26 172.319 2475.45 170.111C2474.64 167.902 2473.46 165.988 2471.91 164.368C2470.44 162.749 2468.6 161.497 2466.39 160.614C2464.26 159.73 2461.86 159.289 2459.21 159.289H2393.18C2388.54 159.289 2383.53 158.479 2378.16 156.859C2372.78 155.166 2367.78 152.479 2363.14 148.798C2358.57 145.117 2354.75 140.295 2351.65 134.332C2348.64 128.368 2347.13 121.08 2347.13 112.467C2347.13 103.853 2348.64 96.6015 2351.65 90.712C2354.75 84.7488 2358.57 79.9267 2363.14 76.2458C2367.78 72.4912 2372.78 69.8041 2378.16 68.1844C2383.53 66.4912 2388.54 65.6446 2393.18 65.6446H2490.91V94.3561H2393.18C2387.73 94.3561 2383.46 96.0126 2380.37 99.3255C2377.35 102.638 2375.84 107.019 2375.84 112.467C2375.84 117.988 2377.35 122.368 2380.37 125.608C2383.46 128.773 2387.73 130.356 2393.18 130.356H2459.21H2459.43C2462.53 130.43 2465.8 130.871 2469.26 131.681C2472.72 132.417 2476.14 133.595 2479.53 135.215C2482.99 136.835 2486.27 138.896 2489.36 141.399C2492.45 143.828 2495.18 146.773 2497.53 150.233C2499.96 153.693 2501.87 157.669 2503.27 162.16C2504.67 166.65 2505.37 171.73 2505.37 177.399Z" fill="#68EAFF"/>
<defs>
<filter id="filter0_d_982_1920" x="0.629251" y="32.5469" width="130.275" height="232.742" filterUnits="userSpaceOnUse" color-interpolation-filters="sRGB">
<feFlood flood-opacity="0" result="BackgroundImageFix"/>
<feColorMatrix in="SourceAlpha" type="matrix" values="0 0 0 0 0 0 0 0 0 0 0 0 0 0 0 0 0 0 127 0" result="hardAlpha"/>
<feOffset dx="-0.463601" dy="1.85441"/>
<feGaussianBlur stdDeviation="3.47701"/>
<feComposite in2="hardAlpha" operator="out"/>
<feColorMatrix type="matrix" values="0 0 0 0 0 0 0 0 0 0 0 0 0 0 0 0 0 0 0.5 0"/>
<feBlend mode="normal" in2="BackgroundImageFix" result="effect1_dropShadow_982_1920"/>
<feBlend mode="normal" in="SourceGraphic" in2="effect1_dropShadow_982_1920" result="shape"/>
</filter>
<filter id="filter1_d_982_1920" x="0.629251" y="19.2219" width="130.275" height="232.742" filterUnits="userSpaceOnUse" color-interpolation-filters="sRGB">
<feFlood flood-opacity="0" result="BackgroundImageFix"/>
<feColorMatrix in="SourceAlpha" type="matrix" values="0 0 0 0 0 0 0 0 0 0 0 0 0 0 0 0 0 0 127 0" result="hardAlpha"/>
<feOffset dx="-0.463601" dy="1.85441"/>
<feGaussianBlur stdDeviation="3.47701"/>
<feComposite in2="hardAlpha" operator="out"/>
<feColorMatrix type="matrix" values="0 0 0 0 0 0 0 0 0 0 0 0 0 0 0 0 0 0 0.5 0"/>
<feBlend mode="normal" in2="BackgroundImageFix" result="effect1_dropShadow_982_1920"/>
<feBlend mode="normal" in="SourceGraphic" in2="effect1_dropShadow_982_1920" result="shape"/>
</filter>
<filter id="filter2_d_982_1920" x="116.357" y="32.5469" width="130.275" height="232.742" filterUnits="userSpaceOnUse" color-interpolation-filters="sRGB">
<feFlood flood-opacity="0" result="BackgroundImageFix"/>
<feColorMatrix in="SourceAlpha" type="matrix" values="0 0 0 0 0 0 0 0 0 0 0 0 0 0 0 0 0 0 127 0" result="hardAlpha"/>
<feOffset dx="0.463601" dy="1.85441"/>
<feGaussianBlur stdDeviation="3.47701"/>
<feComposite in2="hardAlpha" operator="out"/>
<feColorMatrix type="matrix" values="0 0 0 0 0 0 0 0 0 0 0 0 0 0 0 0 0 0 0.5 0"/>
<feBlend mode="normal" in2="BackgroundImageFix" result="effect1_dropShadow_982_1920"/>
<feBlend mode="normal" in="SourceGraphic" in2="effect1_dropShadow_982_1920" result="shape"/>
</filter>
<filter id="filter3_d_982_1920" x="116.357" y="19.2219" width="130.275" height="232.742" filterUnits="userSpaceOnUse" color-interpolation-filters="sRGB">
<feFlood flood-opacity="0" result="BackgroundImageFix"/>
<feColorMatrix in="SourceAlpha" type="matrix" values="0 0 0 0 0 0 0 0 0 0 0 0 0 0 0 0 0 0 127 0" result="hardAlpha"/>
<feOffset dx="0.463601" dy="1.85441"/>
<feGaussianBlur stdDeviation="3.47701"/>
<feComposite in2="hardAlpha" operator="out"/>
<feColorMatrix type="matrix" values="0 0 0 0 0 0 0 0 0 0 0 0 0 0 0 0 0 0 0.5 0"/>
<feBlend mode="normal" in2="BackgroundImageFix" result="effect1_dropShadow_982_1920"/>
<feBlend mode="normal" in="SourceGraphic" in2="effect1_dropShadow_982_1920" result="shape"/>
</filter>
</defs>
</svg>
