<svg width="2505" height="288" viewBox="0 0 2505 288" fill="none" xmlns="http://www.w3.org/2000/svg">
<path d="M501.694 224H398.111C395.461 224 392.59 223.706 389.498 223.117C386.479 222.454 383.461 221.46 380.443 220.135C377.498 218.81 374.663 217.117 371.939 215.055C369.216 212.92 366.786 210.38 364.651 207.436C362.59 204.417 360.933 200.957 359.682 197.055C358.43 193.08 357.805 188.626 357.805 183.693V105.951C357.805 103.301 358.099 100.467 358.688 97.4482C359.351 94.3561 360.344 91.3378 361.67 88.393C362.995 85.3746 364.725 82.5034 366.86 79.7795C368.995 77.0556 371.535 74.6629 374.479 72.6016C377.498 70.4666 380.958 68.7734 384.86 67.5219C388.762 66.2703 393.179 65.6446 398.111 65.6446H501.694V94.3561H398.111C394.357 94.3561 391.485 95.35 389.498 97.3377C387.51 99.3255 386.516 102.27 386.516 106.172V183.693C386.516 187.374 387.51 190.245 389.498 192.307C391.559 194.295 394.43 195.288 398.111 195.288H501.694V224ZM692.626 159.951C692.626 169.595 690.969 178.466 687.656 186.565C684.344 194.663 679.742 201.656 673.853 207.546C667.963 213.436 660.969 218.037 652.871 221.35C644.847 224.589 636.086 226.209 626.589 226.209H587.718C578.221 226.209 569.424 224.589 561.326 221.35C553.227 218.037 546.234 213.436 540.344 207.546C534.454 201.656 529.816 194.663 526.43 186.565C523.117 178.466 521.461 169.595 521.461 159.951V129.693C521.461 120.123 523.117 111.289 526.43 103.19C529.816 95.0187 534.454 88.0249 540.344 82.2089C546.234 76.3194 553.227 71.7182 561.326 68.4053C569.424 65.0924 578.221 63.436 587.718 63.436H626.589C636.086 63.436 644.847 65.0924 652.871 68.4053C660.969 71.7182 667.963 76.3194 673.853 82.2089C679.742 88.0249 684.344 95.0187 687.656 103.19C690.969 111.289 692.626 120.123 692.626 129.693V159.951ZM663.914 129.693C663.914 124.025 662.994 118.908 661.153 114.344C659.387 109.706 656.847 105.767 653.534 102.528C650.295 99.215 646.356 96.6752 641.718 94.9083C637.154 93.0678 632.111 92.1476 626.589 92.1476H587.718C582.123 92.1476 577.006 93.0678 572.368 94.9083C567.804 96.6752 563.865 99.215 560.553 102.528C557.24 105.767 554.663 109.706 552.822 114.344C551.056 118.908 550.172 124.025 550.172 129.693V159.951C550.172 165.62 551.056 170.773 552.822 175.411C554.663 179.976 557.24 183.914 560.553 187.227C563.865 190.466 567.804 193.006 572.368 194.847C577.006 196.614 582.123 197.497 587.718 197.497H626.368C631.963 197.497 637.043 196.614 641.608 194.847C646.246 193.006 650.221 190.466 653.534 187.227C656.847 183.914 659.387 179.976 661.153 175.411C662.994 170.773 663.914 165.62 663.914 159.951V129.693ZM876.159 209.534C876.159 211.595 875.791 213.509 875.055 215.276C874.319 217.043 873.288 218.589 871.963 219.914C870.638 221.166 869.092 222.16 867.325 222.896C865.558 223.632 863.681 224 861.693 224H796.981C790.871 224 784.687 223.337 778.429 222.012C772.172 220.687 766.098 218.663 760.208 215.939C754.393 213.141 748.908 209.607 743.755 205.337C738.601 201.068 734.074 196.025 730.172 190.209C726.344 184.319 723.325 177.62 721.117 170.111C718.908 162.528 717.804 154.098 717.804 144.822V65.6446H746.515V144.822C746.515 152.92 747.62 159.767 749.828 165.362C752.11 170.957 754.981 175.632 758.442 179.387C761.902 183.141 765.693 186.086 769.816 188.221C773.938 190.356 777.84 191.939 781.521 192.969C785.276 194 788.552 194.663 791.349 194.957C794.221 195.178 796.098 195.288 796.981 195.288H847.448V65.6446H876.159V209.534ZM1067.86 211.742C1067.86 213.804 1067.46 215.718 1066.65 217.485C1065.91 219.252 1064.88 220.798 1063.56 222.123C1062.31 223.374 1060.8 224.368 1059.03 225.104C1057.26 225.84 1055.39 226.209 1053.4 226.209C1051.63 226.209 1049.83 225.877 1047.99 225.215C1046.22 224.552 1044.64 223.485 1043.24 222.012L938.331 112.467V224H909.619V77.9022C909.619 74.9574 910.429 72.3071 912.049 69.9513C913.742 67.5219 915.877 65.7182 918.453 64.5403C921.177 63.436 923.975 63.1783 926.846 63.7673C929.717 64.2826 932.184 65.6078 934.245 67.7427L1039.15 177.178V65.6446H1067.86V211.742ZM1244.44 94.3561H1181.16V224H1152.45V94.3561H1089.07V65.6446H1244.44V94.3561ZM1395.84 159.289H1305.18V130.356H1395.84V159.289ZM1408.76 224H1305.18C1301.2 224 1296.86 223.301 1292.15 221.902C1287.43 220.503 1283.05 218.221 1279 215.055C1275.03 211.816 1271.68 207.656 1268.96 202.577C1266.31 197.423 1264.98 191.129 1264.98 183.693V80.1108C1264.98 78.1231 1265.35 76.2458 1266.08 74.4789C1266.82 72.712 1267.81 71.166 1269.07 69.8409C1270.39 68.5157 1271.94 67.485 1273.7 66.7489C1275.47 66.0127 1277.39 65.6446 1279.45 65.6446H1408.76V94.3561H1293.69V183.693C1293.69 187.448 1294.69 190.319 1296.67 192.307C1298.66 194.295 1301.57 195.288 1305.4 195.288H1408.76V224ZM1594.83 118.871C1594.83 125.424 1594.02 131.276 1592.4 136.43C1590.78 141.583 1588.57 146.147 1585.78 150.123C1583.05 154.025 1579.89 157.374 1576.28 160.172C1572.67 162.969 1568.88 165.288 1564.91 167.129C1561 168.896 1557.03 170.184 1552.98 170.994C1549 171.804 1545.25 172.209 1541.72 172.209L1601.68 224H1557.29L1497.43 172.209H1476.78V143.497H1541.72C1545.32 143.203 1548.6 142.466 1551.54 141.289C1554.56 140.037 1557.14 138.381 1559.27 136.319C1561.48 134.258 1563.18 131.792 1564.35 128.92C1565.53 125.976 1566.12 122.626 1566.12 118.871V100.761C1566.12 99.1414 1565.9 97.9267 1565.46 97.1169C1565.09 96.2334 1564.57 95.6077 1563.91 95.2396C1563.32 94.7979 1562.66 94.5402 1561.92 94.4666C1561.26 94.393 1560.64 94.3561 1560.05 94.3561H1465.3V224H1436.59V80.1108C1436.59 78.1231 1436.96 76.2458 1437.69 74.4789C1438.43 72.712 1439.42 71.166 1440.67 69.8409C1442 68.5157 1443.54 67.485 1445.31 66.7489C1447.08 66.0127 1448.99 65.6446 1451.05 65.6446H1560.05C1566.45 65.6446 1571.86 66.8225 1576.28 69.1783C1580.7 71.4605 1584.27 74.3685 1586.99 77.9022C1589.79 81.3623 1591.78 85.1169 1592.95 89.166C1594.21 93.215 1594.83 97.0064 1594.83 100.54V118.871Z" fill="white"/>
<path d="M1781.46 131.902C1781.46 138.454 1780.65 144.307 1779.03 149.46C1777.41 154.614 1775.2 159.178 1772.4 163.154C1769.68 167.055 1766.51 170.405 1762.91 173.203C1759.3 176 1755.51 178.282 1751.53 180.049C1747.63 181.816 1743.65 183.104 1739.6 183.914C1735.63 184.724 1731.87 185.129 1728.34 185.129H1663.41V156.417H1728.34C1732.02 156.123 1735.33 155.387 1738.28 154.209C1741.3 152.957 1743.87 151.301 1746.01 149.239C1748.14 147.178 1749.8 144.712 1750.98 141.841C1752.16 138.896 1752.75 135.583 1752.75 131.902V118.871C1752.38 115.264 1751.6 111.951 1750.43 108.933C1749.25 105.914 1747.63 103.338 1745.57 101.203C1743.58 99.0678 1741.15 97.4114 1738.28 96.2334C1735.41 94.9819 1732.1 94.3561 1728.34 94.3561H1663.63C1659.8 94.3561 1656.89 95.35 1654.91 97.3377C1652.92 99.3255 1651.92 102.197 1651.92 105.951V224H1623.21V105.951C1623.21 98.5893 1624.54 92.3316 1627.19 87.1783C1629.91 82.0249 1633.26 77.8654 1637.24 74.6998C1641.29 71.5341 1645.67 69.2519 1650.38 67.8531C1655.09 66.3808 1659.43 65.6446 1663.41 65.6446H1728.34C1734.82 65.6446 1740.64 66.4912 1745.79 68.1844C1750.94 69.8041 1755.47 72.0126 1759.37 74.8102C1763.35 77.5341 1766.7 80.6997 1769.42 84.3071C1772.22 87.9144 1774.5 91.7058 1776.27 95.6813C1778.11 99.5831 1779.43 103.559 1780.24 107.608C1781.05 111.583 1781.46 115.338 1781.46 118.871V131.902ZM1961.46 224H1932.75V185.129H1831.81V224H1803.1V144.822C1803.1 133.264 1805.09 122.626 1809.06 112.908C1813.04 103.19 1818.56 94.8347 1825.63 87.8408C1832.7 80.847 1841.05 75.3991 1850.7 71.4973C1860.34 67.5955 1870.87 65.6446 1882.28 65.6446H1946.99C1948.98 65.6446 1950.86 66.0127 1952.62 66.7489C1954.39 67.485 1955.94 68.5157 1957.26 69.8409C1958.59 71.166 1959.62 72.712 1960.35 74.4789C1961.09 76.2458 1961.46 78.1231 1961.46 80.1108V224ZM1831.81 156.417H1932.75V94.3561H1882.28C1881.4 94.3561 1879.52 94.5034 1876.65 94.7979C1873.85 95.0187 1870.57 95.6445 1866.82 96.6752C1863.14 97.7058 1859.24 99.2887 1855.11 101.424C1850.99 103.559 1847.2 106.503 1843.74 110.258C1840.28 114.013 1837.41 118.724 1835.13 124.393C1832.92 129.988 1831.81 136.798 1831.81 144.822V156.417ZM2153.16 118.871C2153.16 125.424 2152.35 131.276 2150.73 136.43C2149.11 141.583 2146.9 146.147 2144.11 150.123C2141.38 154.025 2138.22 157.374 2134.61 160.172C2131 162.969 2127.21 165.288 2123.24 167.129C2119.33 168.896 2115.36 170.184 2111.31 170.994C2107.33 171.804 2103.58 172.209 2100.05 172.209L2160.01 224H2115.62L2055.76 172.209H2035.11V143.497H2100.05C2103.65 143.203 2106.93 142.466 2109.87 141.289C2112.89 140.037 2115.47 138.381 2117.6 136.319C2119.81 134.258 2121.51 131.792 2122.68 128.92C2123.86 125.976 2124.45 122.626 2124.45 118.871V100.761C2124.45 99.1414 2124.23 97.9267 2123.79 97.1169C2123.42 96.2334 2122.9 95.6077 2122.24 95.2396C2121.65 94.7979 2120.99 94.5402 2120.25 94.4666C2119.59 94.393 2118.97 94.3561 2118.38 94.3561H2023.63V224H1994.92V80.1108C1994.92 78.1231 1995.29 76.2458 1996.02 74.4789C1996.76 72.712 1997.75 71.166 1999 69.8409C2000.33 68.5157 2001.87 67.485 2003.64 66.7489C2005.41 66.0127 2007.32 65.6446 2009.38 65.6446H2118.38C2124.78 65.6446 2130.19 66.8225 2134.61 69.1783C2139.03 71.4605 2142.6 74.3685 2145.32 77.9022C2148.12 81.3623 2150.11 85.1169 2151.28 89.166C2152.54 93.215 2153.16 97.0064 2153.16 100.54V118.871ZM2323.78 94.3561H2260.5V224H2231.79V94.3561H2168.4V65.6446H2323.78V94.3561ZM2497.15 177.399C2497.15 183.068 2496.41 188.184 2494.94 192.749C2493.54 197.239 2491.66 201.215 2489.31 204.675C2486.95 208.135 2484.19 211.08 2481.03 213.509C2477.86 215.939 2474.58 217.926 2471.2 219.472C2467.81 221.018 2464.35 222.16 2460.82 222.896C2457.36 223.632 2454.08 224 2450.99 224H2340.23V195.288H2450.99C2456.51 195.288 2460.78 193.669 2463.8 190.43C2466.89 187.19 2468.44 182.847 2468.44 177.399C2468.44 174.749 2468.03 172.319 2467.22 170.111C2466.41 167.902 2465.23 165.988 2463.69 164.368C2462.22 162.749 2460.38 161.497 2458.17 160.614C2456.03 159.73 2453.64 159.289 2450.99 159.289H2384.95C2380.31 159.289 2375.31 158.479 2369.93 156.859C2364.56 155.166 2359.55 152.479 2354.92 148.798C2350.35 145.117 2346.52 140.295 2343.43 134.332C2340.41 128.368 2338.9 121.08 2338.9 112.467C2338.9 103.853 2340.41 96.6015 2343.43 90.712C2346.52 84.7488 2350.35 79.9267 2354.92 76.2458C2359.55 72.4912 2364.56 69.8041 2369.93 68.1844C2375.31 66.4912 2380.31 65.6446 2384.95 65.6446H2482.68V94.3561H2384.95C2379.51 94.3561 2375.24 96.0126 2372.14 99.3255C2369.12 102.638 2367.62 107.019 2367.62 112.467C2367.62 117.988 2369.12 122.368 2372.14 125.608C2375.24 128.773 2379.51 130.356 2384.95 130.356H2450.99H2451.21C2454.3 130.43 2457.58 130.871 2461.04 131.681C2464.5 132.417 2467.92 133.595 2471.31 135.215C2474.77 136.835 2478.04 138.896 2481.14 141.399C2484.23 143.828 2486.95 146.773 2489.31 150.233C2491.74 153.693 2493.65 157.669 2495.05 162.16C2496.45 166.65 2497.15 171.73 2497.15 177.399Z" fill="#68EAFF"/>
<path fill-rule="evenodd" clip-rule="evenodd" d="M169.794 49.9303C169.794 39.3037 161.179 30.6892 150.553 30.6892H29.8661C19.2395 30.6892 10.625 39.3038 10.625 49.9303V172.098C10.625 182.725 19.2395 191.339 29.8661 191.339H150.553C161.179 191.339 169.794 182.725 169.794 172.098V49.9303ZM149.594 70.3534C149.594 59.7269 140.979 51.1124 130.353 51.1124H50.0524C39.4258 51.1124 30.8113 59.7269 30.8113 70.3534V151.675C30.8113 162.302 39.4258 170.916 50.0524 170.916H130.353C140.979 170.916 149.594 162.302 149.594 151.675V70.3534Z" fill="#838383"/>
<path fill-rule="evenodd" clip-rule="evenodd" d="M159.169 39.5751C159.169 28.9485 150.554 20.334 139.928 20.334H19.2411C8.61453 20.334 0 28.9485 0 39.5751V161.743C0 172.37 8.61451 180.984 19.2411 180.984H139.928C150.554 180.984 159.169 172.369 159.169 161.743V39.5751ZM138.969 59.9983C138.969 49.3717 130.354 40.7572 119.728 40.7572H39.4274C28.8008 40.7572 20.1863 49.3717 20.1863 59.9983V141.32C20.1863 151.946 28.8008 160.561 39.4274 160.561H119.728C130.354 160.561 138.969 151.946 138.969 141.32V59.9983Z" fill="white"/>
<path fill-rule="evenodd" clip-rule="evenodd" d="M241.212 120.338C241.212 109.711 232.597 101.097 221.971 101.097H101.284C90.6575 101.097 82.043 109.711 82.043 120.338V242.506C82.043 253.132 90.6575 261.747 101.284 261.747H221.971C232.597 261.747 241.212 253.132 241.212 242.506V120.338ZM221.018 140.761C221.018 130.134 212.404 121.52 201.777 121.52H121.477C110.85 121.52 102.236 130.134 102.236 140.761V222.082C102.236 232.709 110.85 241.323 121.477 241.323H201.777C212.404 241.323 221.018 232.709 221.018 222.082V140.761Z" fill="#007D92"/>
<path fill-rule="evenodd" clip-rule="evenodd" d="M230.587 109.598C230.587 98.9711 221.972 90.3566 211.346 90.3566H90.659C80.0325 90.3566 71.418 98.9711 71.418 109.598V231.766C71.418 242.392 80.0325 251.007 90.659 251.007H211.346C221.972 251.007 230.587 242.392 230.587 231.766V109.598ZM210.387 130.021C210.387 119.394 201.772 110.78 191.146 110.78H110.845C100.219 110.78 91.6043 119.394 91.6043 130.021V211.342C91.6043 221.969 100.219 230.583 110.845 230.583H191.146C201.772 230.583 210.387 221.969 210.387 211.342V130.021Z" fill="#68EAFF"/>
<path d="M102.535 160.538H69.9286V180.933H102.535V160.538Z" fill="white"/>
<path d="M102.543 180.933H69.9364V191.324H102.543V180.933Z" fill="#838383"/>
</svg>
