<svg width="50" height="50" viewBox="0 0 50 50" fill="none" xmlns="http://www.w3.org/2000/svg">
<path d="M25 6.10352e-05C20.0555 6.10352e-05 15.222 1.46629 11.1108 4.21332C6.99952 6.96035 3.79521 10.8648 1.90302 15.433C0.0108321 20.0011 -0.484251 25.0278 0.480379 29.8773C1.44501 34.7268 3.82603 39.1814 7.32234 42.6777C10.8187 46.174 15.2732 48.5551 20.1227 49.5197C24.9723 50.4843 29.9989 49.9892 34.5671 48.097C39.1352 46.2048 43.0397 43.0005 45.7867 38.8893C48.5338 34.7781 50 29.9446 50 25.0001C49.9939 18.3715 47.358 12.0162 42.6709 7.32916C37.9838 2.64208 31.6285 0.00619005 25 6.10352e-05ZM25 44.4445C21.1543 44.4445 17.3949 43.3041 14.1973 41.1675C10.9996 39.0309 8.50739 35.9941 7.03569 32.4411C5.56398 28.8881 5.17892 24.9785 5.92919 21.2066C6.67945 17.4348 8.53136 13.9701 11.2507 11.2508C13.9701 8.53141 17.4347 6.6795 21.2066 5.92923C24.9784 5.17897 28.8881 5.56403 32.4411 7.03574C35.9941 8.50744 39.0309 10.9997 41.1675 14.1973C43.304 17.3949 44.4444 21.1543 44.4444 25.0001C44.4383 30.1552 42.3877 35.0974 38.7425 38.7426C35.0973 42.3878 30.1551 44.4384 25 44.4445ZM34.375 19.5602L28.9352 25.0001L34.375 30.4399C34.634 30.6979 34.8394 31.0046 34.9796 31.3422C35.1198 31.6799 35.192 32.0419 35.192 32.4075C35.192 32.7731 35.1198 33.1351 34.9796 33.4727C34.8394 33.8103 34.634 34.117 34.375 34.3751C33.8508 34.8924 33.1439 35.1825 32.4074 35.1825C31.6709 35.1825 30.964 34.8924 30.4398 34.3751L25 28.9352L19.5602 34.3751C19.036 34.8924 18.3291 35.1825 17.5926 35.1825C16.8561 35.1825 16.1492 34.8924 15.625 34.3751C15.366 34.117 15.1606 33.8103 15.0204 33.4727C14.8802 33.1351 14.808 32.7731 14.808 32.4075C14.808 32.0419 14.8802 31.6799 15.0204 31.3422C15.1606 31.0046 15.366 30.6979 15.625 30.4399L21.0648 25.0001L15.625 19.5602C15.1032 19.0384 14.81 18.3306 14.81 17.5926C14.81 16.8547 15.1032 16.1469 15.625 15.6251C16.1468 15.1032 16.8546 14.8101 17.5926 14.8101C18.3306 14.8101 19.0384 15.1032 19.5602 15.6251L25 21.0649L30.4398 15.6251C30.9617 15.1032 31.6694 14.8101 32.4074 14.8101C33.1454 14.8101 33.8532 15.1032 34.375 15.6251C34.8968 16.1469 35.19 16.8547 35.19 17.5926C35.19 18.3306 34.8968 19.0384 34.375 19.5602Z" fill="#020040"/>
</svg>
