<svg width="50" height="50" viewBox="0 0 50 50" fill="none" xmlns="http://www.w3.org/2000/svg">
<path d="M25 0C28.283 0 31.5339 0.646644 34.5671 1.90301C37.6002 3.15938 40.3562 5.00087 42.6777 7.32233C44.9991 9.6438 46.8406 12.3998 48.097 15.4329C49.3534 18.4661 50 21.717 50 25C50 31.6304 47.3661 37.9893 42.6777 42.6777C37.9893 47.3661 31.6304 50 25 50C21.717 50 18.4661 49.3534 15.4329 48.097C12.3998 46.8406 9.6438 44.9991 7.32233 42.6777C2.63392 37.9893 0 31.6304 0 25C0 18.3696 2.63392 12.0107 7.32233 7.32233C12.0107 2.63392 18.3696 0 25 0ZM25 5C19.6957 5 14.6086 7.10714 10.8579 10.8579C7.10714 14.6086 5 19.6957 5 25C5 30.3043 7.10714 35.3914 10.8579 39.1421C14.6086 42.8929 19.6957 45 25 45C30.3043 45 35.3914 42.8929 39.1421 39.1421C42.8929 35.3914 45 30.3043 45 25C45 19.6957 42.8929 14.6086 39.1421 10.8579C35.3914 7.10714 30.3043 5 25 5ZM25 21.25C25.9946 21.25 26.9484 21.6451 27.6517 22.3483C28.3549 23.0516 28.75 24.0054 28.75 25C28.75 25.9946 28.3549 26.9484 27.6517 27.6517C26.9484 28.3549 25.9946 28.75 25 28.75C24.0054 28.75 23.0516 28.3549 22.3483 27.6517C21.6451 26.9484 21.25 25.9946 21.25 25C21.25 24.0054 21.6451 23.0516 22.3483 22.3483C23.0516 21.6451 24.0054 21.25 25 21.25ZM13.75 21.25C14.7446 21.25 15.6984 21.6451 16.4017 22.3483C17.1049 23.0516 17.5 24.0054 17.5 25C17.5 25.9946 17.1049 26.9484 16.4017 27.6517C15.6984 28.3549 14.7446 28.75 13.75 28.75C12.7554 28.75 11.8016 28.3549 11.0983 27.6517C10.3951 26.9484 10 25.9946 10 25C10 24.0054 10.3951 23.0516 11.0983 22.3483C11.8016 21.6451 12.7554 21.25 13.75 21.25ZM36.25 21.25C37.2446 21.25 38.1984 21.6451 38.9016 22.3483C39.6049 23.0516 40 24.0054 40 25C40 25.9946 39.6049 26.9484 38.9016 27.6517C38.1984 28.3549 37.2446 28.75 36.25 28.75C35.2554 28.75 34.3016 28.3549 33.5983 27.6517C32.8951 26.9484 32.5 25.9946 32.5 25C32.5 24.0054 32.8951 23.0516 33.5983 22.3483C34.3016 21.6451 35.2554 21.25 36.25 21.25Z" fill="#020040"/>
</svg>
